<?xml version="1.0" encoding="utf-8"?>
<!-- Generator: Adobe Illustrator 27.2.0, SVG Export Plug-In . SVG Version: 6.00 Build 0)  -->
<svg version="1.1" id="Layer_1" xmlns="http://www.w3.org/2000/svg" xmlns:xlink="http://www.w3.org/1999/xlink" x="0px" y="0px"
	 viewBox="0 0 1660.6 145.8" style="enable-background:new 0 0 1660.6 145.8;" xml:space="preserve">
<style type="text/css">
	.st0{fill:#3F3E40;}
	.st1{display:none;fill:#FFFFFF;}
	.st2{fill:none;stroke:#3F3F40;stroke-width:4;stroke-linecap:round;}
	.st3{fill:none;stroke:#3F3F40;stroke-width:4;}
	.st4{fill:#2CAAE2;}
	.st5{fill:#8CC442;}
	.st6{fill:#F16824;}
</style>
<g>
	<g>
		<g>
			<path class="st0" d="M468.2,76.4v31.1h-8.1V38.1h14.6c5.1,0,8.8,0.3,11.2,0.8c2.4,0.5,4.5,1.4,6.3,2.7c2.2,1.6,3.9,3.7,5.2,6.5
				c1.2,2.7,1.9,5.8,1.9,9.1s-0.6,6.4-1.9,9.1c-1.2,2.7-3,4.9-5.2,6.5c-1.8,1.3-3.8,2.2-6.2,2.7c-2.4,0.5-6.1,0.8-11.3,0.8h-2.3
				h-4.2V76.4z M468.2,68.9h4.2c7.1,0,11.8-0.8,14.3-2.5c2.4-1.7,3.7-4.6,3.7-8.7c0-4.4-1.3-7.5-3.8-9.3s-7.2-2.7-14.2-2.7h-4.2
				V68.9z"/>
			<path class="st0" d="M510.4,107.5V38.1h16.3c4.6,0,8,0.3,10.2,0.8s4.1,1.4,5.7,2.7c2.1,1.6,3.6,3.8,4.8,6.5
				c1.1,2.7,1.7,5.7,1.7,9c0,5.7-1.6,10-4.8,13s-7.8,4.4-14,4.4H529l26.5,33.1H545l-25.3-33.1h-1.2v33.1L510.4,107.5L510.4,107.5z
				 M518.5,45.1v23.2h6.3c6.4,0,10.8-0.8,12.9-2.5c2.2-1.7,3.3-4.6,3.3-8.7c0-4.5-1.1-7.6-3.4-9.4c-2.2-1.8-6.5-2.7-12.8-2.7
				L518.5,45.1L518.5,45.1z"/>
			<path class="st0" d="M563.4,107.5V38.1H600v7.5h-28.3v19.9H600v7.7h-28.3v26.6H600v7.7C600,107.5,563.4,107.5,563.4,107.5z"/>
			<path class="st0" d="M671.2,54.7c-3.3-3.6-6.9-6.3-10.6-8c-3.8-1.7-7.9-2.6-12.5-2.6c-3.7,0-7.2,0.7-10.7,2.2s-6.5,3.6-9.1,6.2
				c-2.7,2.7-4.6,5.8-6,9.2c-1.3,3.4-2,7.1-2,11.3c0,3.2,0.4,6.2,1.2,8.9c0.8,2.7,2,5.2,3.6,7.5c2.8,4,6.2,7,10.3,9.1
				s8.4,3.2,13.2,3.2c4.4,0,8.5-0.9,12.3-2.7c3.8-1.8,7.3-4.6,10.4-8.2v11c-3.4,2.5-7.2,4.4-11.1,5.7c-4,1.3-8.1,1.9-12.3,1.9
				c-3.7,0-7.2-0.5-10.7-1.6s-6.7-2.7-9.8-4.8c-5.1-3.5-8.9-7.8-11.6-12.9c-2.7-5.1-4-10.7-4-16.9c0-5.3,0.9-10.2,2.7-14.6
				s4.5-8.3,8.2-11.9c3.5-3.4,7.5-6,11.8-7.7s9-2.5,14.1-2.5c4,0,7.9,0.6,11.7,1.8s7.5,3.1,11.1,5.7v10.7H671.2z"/>
			<path class="st0" d="M686.4,107.5V38.1h8.2v69.4H686.4z"/>
			<path class="st0" d="M737.6,69c4.5,1.9,7.9,4.5,10.2,7.7s3.4,7,3.4,11.3c0,6.4-2,11.5-6.1,15.4s-9.4,5.9-16.1,5.9
				c-5.5,0-10-1.4-13.7-4.2c-3.7-2.8-6.2-6.8-7.5-11.9l7.5-3.7c1,4.2,2.7,7.4,5,9.6s5.2,3.2,8.7,3.2c4.1,0,7.5-1.2,10-3.6
				c2.6-2.4,3.8-5.5,3.8-9.3c0-3.1-0.9-5.8-2.7-8.1c-1.8-2.3-4.5-4.2-8.1-5.8l-8.4-3.6c-4.6-1.9-8.1-4.4-10.3-7.4
				c-2.3-3-3.4-6.7-3.4-10.9c0-4.9,1.8-9,5.5-12.2s8.3-4.8,14-4.8c4.2,0,7.8,0.9,10.8,2.7s5.4,4.4,7.1,7.8l-6.8,4.4
				c-1.5-2.7-3.3-4.7-5.2-6s-4.1-2-6.5-2c-3.1,0-5.6,0.9-7.6,2.8c-2,1.9-3,4.3-3,7.3c0,2.5,0.8,4.6,2.3,6.4c1.5,1.8,3.9,3.4,7.1,4.8
				L737.6,69z"/>
			<path class="st0" d="M763.3,107.5V38.1h8.2v69.4H763.3z"/>
			<path class="st0" d="M860.4,73c0,5-0.9,9.6-2.8,14c-1.8,4.4-4.5,8.3-8,11.7c-3.5,3.4-7.5,6-12.1,7.9c-4.6,1.8-9.3,2.8-14.2,2.8
				s-9.6-0.9-14.2-2.8c-4.5-1.8-8.6-4.5-12.1-7.9s-6.2-7.4-8.1-11.8c-1.9-4.4-2.8-9.1-2.8-14c0-5,0.9-9.6,2.8-14.1
				c1.9-4.4,4.5-8.3,8.1-11.8c3.5-3.4,7.5-6,12-7.8c4.6-1.8,9.3-2.7,14.2-2.7s9.7,0.9,14.3,2.7s8.6,4.4,12.1,7.8
				c3.5,3.4,6.2,7.3,8,11.7C859.4,63.3,860.4,68,860.4,73z M823.3,101.6c3.8,0,7.4-0.7,10.8-2.2c3.4-1.4,6.5-3.5,9.3-6.3
				c2.7-2.7,4.8-5.8,6.2-9.2c1.4-3.4,2.1-7.1,2.1-10.9c0-3.9-0.7-7.6-2.2-11.1c-1.4-3.5-3.5-6.6-6.2-9.3s-5.8-4.8-9.2-6.2
				s-7.1-2.1-10.9-2.1c-3.9,0-7.5,0.7-11,2.1c-3.4,1.4-6.5,3.5-9.2,6.2s-4.8,5.9-6.2,9.3c-1.4,3.5-2.1,7.2-2.1,11
				c0,3.9,0.7,7.5,2.1,10.9c1.4,3.4,3.5,6.5,6.2,9.3c2.8,2.8,5.9,4.9,9.3,6.3C815.8,100.9,819.4,101.6,823.3,101.6z"/>
			<path class="st0" d="M874.8,107.5V35.4l50.8,55.5V38.1h7.9v72.1l-50.8-54.8v52.1H874.8z"/>
			<path class="st0" d="M967.8,107.5H950V38.1h19.8c7.7,0,13.2,0.4,16.3,1.1c3.1,0.8,5.8,2.1,8,3.9c2.6,2.1,4.5,4.8,5.9,7.9
				c1.3,3.2,2,6.7,2,10.6c0,4.1-0.7,7.8-2,10.9s-3.3,5.7-5.9,7.8c-2,1.5-4.3,2.6-6.9,3.3c-2.7,0.7-6.9,1-12.8,1h-3.2h-3.4
				L967.8,107.5L967.8,107.5z M967.8,69.4h3.6c4.6,0,7.7-0.6,9.5-1.9c1.8-1.2,2.7-3.4,2.7-6.4c0-2.9-0.9-5-2.7-6.2s-4.9-1.8-9.4-1.8
				h-3.8v16.3H967.8z"/>
			<path class="st0" d="M999.5,107.5l23.9-69.4h23.7l24,69.4h-18.8l-3.5-12.4H1022l-3.6,12.4H999.5z M1026,81.6h18.8l-7.1-22.9
				c-0.2-0.7-0.5-1.8-0.9-3.4c-0.4-1.5-0.9-3.5-1.5-6c-0.4,1.7-0.8,3.3-1.2,4.9c-0.4,1.5-0.8,3-1.2,4.5L1026,81.6z"/>
			<path class="st0" d="M1079.2,107.5V38.1h19.1v69.4H1079.2z"/>
			<path class="st0" d="M1114.6,107.5V38.1h18.2l26.2,35.7c0.5,0.7,1.3,2.2,2.5,4.4c1.2,2.2,2.4,4.8,3.8,7.8
				c-0.4-2.9-0.7-5.4-0.8-7.7c-0.2-2.2-0.3-4.2-0.3-6V38.1h18.2v69.4h-18.2L1138,71.7c-0.5-0.7-1.4-2.2-2.5-4.4
				c-1.2-2.2-2.4-4.8-3.8-7.8c0.4,2.9,0.7,5.5,0.8,7.7c0.2,2.2,0.3,4.2,0.3,6v34.3H1114.6z"/>
			<path class="st0" d="M1208.3,107.5v-53h-15.5V38.1h50v16.4h-15.5v53H1208.3z"/>
			<path class="st0" d="M1253.4,107.5V38.1h19.1v69.4H1253.4z"/>
			<path class="st0" d="M1288.8,107.5V38.1h18.2l26.2,35.7c0.5,0.7,1.3,2.2,2.5,4.4c1.2,2.2,2.4,4.8,3.8,7.8
				c-0.4-2.9-0.7-5.4-0.8-7.7c-0.2-2.2-0.3-4.2-0.3-6V38.1h18.2v69.4h-18.2l-26.2-35.8c-0.5-0.7-1.4-2.2-2.5-4.4
				c-1.2-2.2-2.4-4.8-3.8-7.8c0.4,2.9,0.7,5.5,0.8,7.7c0.2,2.2,0.3,4.2,0.3,6v34.3H1288.8z"/>
			<path class="st0" d="M1405.4,82V67.4h37.2c0,0.5,0.1,1,0.1,1.6s0,1.4,0,2.5c0,11.9-3.2,21.2-9.5,27.8c-6.3,6.6-15.2,9.9-26.6,9.9
				c-5.6,0-10.6-0.8-15-2.5s-8.3-4.3-11.7-7.8c-3.3-3.3-5.8-7.2-7.7-11.8c-1.8-4.5-2.7-9.3-2.7-14.2c0-5.2,0.9-9.9,2.7-14.3
				c1.8-4.3,4.4-8.3,7.9-11.7s7.5-5.9,12-7.7c4.5-1.7,9.4-2.6,14.6-2.6c6.8,0,12.8,1.3,18,4s9.6,6.7,13.2,12l-16.4,7.9
				c-2-2.7-4.2-4.7-6.6-6c-2.5-1.3-5.2-2-8.2-2c-5.7,0-10.1,1.9-13.4,5.7s-4.9,8.9-4.9,15.5s1.6,11.8,4.9,15.6
				c3.3,3.8,7.7,5.7,13.4,5.7c4.8,0,8.8-1.2,12-3.5c3.2-2.4,5.1-5.5,5.6-9.4L1405.4,82L1405.4,82z"/>
			<path class="st0" d="M1464.2,76.4v31.1h-8.1V38.1h14.6c5.1,0,8.8,0.3,11.2,0.8c2.4,0.5,4.5,1.4,6.3,2.7c2.2,1.6,3.9,3.7,5.2,6.5
				c1.2,2.7,1.9,5.8,1.9,9.1s-0.6,6.4-1.9,9.1c-1.2,2.7-3,4.9-5.2,6.5c-1.8,1.3-3.8,2.2-6.2,2.7c-2.4,0.5-6.1,0.8-11.3,0.8h-2.3
				h-4.2V76.4z M1464.2,68.9h4.2c7.1,0,11.8-0.8,14.3-2.5c2.4-1.7,3.7-4.6,3.7-8.7c0-4.4-1.3-7.5-3.8-9.3s-7.2-2.7-14.2-2.7h-4.2
				V68.9z"/>
			<path class="st0" d="M1506.4,107.5V38.1h8.2v61.5h26.2v7.9H1506.4z"/>
			<path class="st0" d="M1549.7,38.1h8.3v43.2c0,7,1.5,12.2,4.5,15.5s7.7,4.9,14.1,4.9s11.1-1.6,14.1-4.9s4.5-8.4,4.5-15.5V38.1h8.4
				v43.2c0,9.4-2.2,16.4-6.7,21.1s-11.2,7-20.2,7s-15.7-2.3-20.2-7s-6.7-11.7-6.7-21.1V38.1H1549.7z"/>
			<path class="st0" d="M1646.1,69c4.5,1.9,7.9,4.5,10.2,7.7c2.3,3.2,3.4,7,3.4,11.3c0,6.4-2,11.5-6.1,15.4s-9.4,5.9-16.1,5.9
				c-5.5,0-10-1.4-13.7-4.2c-3.7-2.8-6.2-6.8-7.5-11.9l7.5-3.7c1,4.2,2.7,7.4,5,9.6s5.2,3.2,8.7,3.2c4.1,0,7.5-1.2,10-3.6
				c2.6-2.4,3.8-5.5,3.8-9.3c0-3.1-0.9-5.8-2.7-8.1c-1.8-2.3-4.5-4.2-8.1-5.8l-8.4-3.6c-4.6-1.9-8.1-4.4-10.3-7.4
				c-2.3-3-3.4-6.7-3.4-10.9c0-4.9,1.8-9,5.5-12.2s8.3-4.8,14-4.8c4.2,0,7.8,0.9,10.8,2.7c3.1,1.8,5.4,4.4,7.1,7.8l-6.8,4.4
				c-1.5-2.7-3.3-4.7-5.2-6c-1.9-1.3-4.1-2-6.5-2c-3.1,0-5.6,0.9-7.6,2.8c-2,1.9-3,4.3-3,7.3c0,2.5,0.8,4.6,2.3,6.4
				c1.5,1.8,3.9,3.4,7.1,4.8L1646.1,69z"/>
		</g>
	</g>
	<g>
		<path class="st1" d="M269.6,76h21.6c0-37.3-31.6-67.6-70.6-67.6S150,38.7,150,76h22.2H269.6L269.6,76z"/>
		<path class="st2" d="M278.5,76h12.7c0-37.3-31.6-67.6-70.6-67.6S150,38.7,150,76h11.9"/>
		<path class="st3" d="M161.8,78.9c0-32.3,26.2-58.4,58.4-58.4c32.3,0,58.4,26.2,58.4,58.4c0,32.3-26.2,58.4-58.4,58.4
			S161.8,111.1,161.8,78.9L161.8,78.9z"/>
		<path class="st4" d="M180.8,79c0-22.2,18-40.2,40.2-40.2s40.2,18,40.2,40.2s-18,40.2-40.2,40.2S180.8,101.2,180.8,79L180.8,79z"/>
		<path class="st1" d="M363.8,119.1l-4.5,22.6c36.8,6.6,72.1-19.2,79-57.6c6.8-38.4-17.4-74.8-54.2-81.3l-4.4,22L363.8,119.1
			L363.8,119.1z"/>
		<path class="st2" d="M362.1,129.6l-2.8,12.1c36.8,6.6,72.1-19.2,79-57.6c6.8-38.4-17.4-74.8-54.2-81.3l-2.3,11.7"/>
		<path class="st3" d="M379.2,14c31.8,5.7,52.9,36,47.2,67.8c-5.7,31.8-36,52.9-67.8,47.3c-31.8-5.7-52.9-36-47.3-67.8
			C317.1,29.4,347.5,8.3,379.2,14L379.2,14z"/>
		<path class="st5" d="M375.8,32.6c21.8,3.9,36.4,24.8,32.5,46.6s-24.8,36.4-46.6,32.5c-21.8-3.9-36.4-24.8-32.5-46.6
			C333.1,43.2,353.9,28.7,375.8,32.6L375.8,32.6z"/>
		<path class="st1" d="M54.8,26.7L48.2,5.1C12.9,17.3-5.4,57.1,7.3,93.9s51.7,56.8,87,44.6l-6.9-18.6L54.8,26.7L54.8,26.7z"/>
		<path class="st2" d="M51.9,17.1l-3.7-12C12.9,17.3-5.4,57.1,7.3,93.9s51.7,56.8,87,44.6l-4.1-11.2"/>
		<path class="st3" d="M93.1,126.4c-30.5,10.5-63.8-5.6-74.3-36.1C8.2,59.8,24.4,26.6,54.9,16c30.5-10.5,63.8,5.6,74.3,36.1
			C139.8,82.6,123.6,115.9,93.1,126.4L93.1,126.4z"/>
		<path class="st6" d="M87,108.5c-21,7.2-43.8-3.9-51.1-24.8c-7.2-21,3.9-43.8,24.8-51.1c21-7.3,43.8,3.9,51.1,24.8
			C119.1,78.3,108,101.2,87,108.5L87,108.5z"/>
	</g>
</g>
</svg>
